<svg xmlns="http://www.w3.org/2000/svg" xmlns:xlink="http://www.w3.org/1999/xlink" version="1.1" id="Layer_1" x="0px" y="0px" width="100%" viewBox="163 65 930 1122" enable-background="new 0 0 1254 1254" xml:space="preserve">
<path fill="transparent" opacity="1.000000" stroke="none" d=" M694.000000,1255.000000   C462.666656,1255.000000 231.833328,1255.000000 1.000000,1255.000000   C1.000000,837.000000 1.000000,419.000000 1.000000,1.000000   C419.000000,1.000000 837.000000,1.000000 1255.000000,1.000000   C1255.000000,419.000000 1255.000000,837.000000 1255.000000,1255.000000   C1068.166626,1255.000000 881.333313,1255.000000 694.000000,1255.000000  M1039.734497,719.215332   C1044.683472,704.731934 1050.007935,690.364136 1054.509277,675.742920   C1066.635132,636.355652 1074.827026,596.107117 1076.563721,554.912231   C1077.493530,532.854736 1076.369995,510.639862 1074.976929,488.571533   C1072.744385,453.199432 1064.815430,418.828247 1053.439941,385.342590   C1029.413208,314.615784 990.308411,253.533783 935.392761,202.692535   C895.866577,166.098999 851.091064,137.793030 801.558594,116.754578   C751.006958,95.283295 698.270020,84.002792 643.477600,82.193611   C619.824890,81.412628 596.255249,82.731087 572.758301,85.855598   C525.654907,92.119164 480.758392,105.657600 437.914490,126.077240   C404.851044,141.835434 374.035187,161.199249 345.562042,184.267731   C313.917633,209.905472 286.382385,239.428741 262.778076,272.562927   C235.510590,310.839233 215.133102,352.563202 201.252563,397.478546   C189.701447,434.856323 183.118225,473.136230 181.174210,512.133057   C180.005615,535.575012 180.970230,559.013428 183.750748,582.414856   C187.984940,618.050659 195.846451,652.822144 206.555634,687.006348   C222.056213,736.484863 245.694733,782.009827 273.933014,825.276794   C299.002289,863.688171 327.078400,899.811523 356.893616,934.644348   C394.642029,978.745300 434.827271,1020.505554 477.903503,1059.365845   C513.871643,1091.813843 550.687073,1123.328247 587.353333,1154.994385   C610.996704,1175.413574 644.457764,1176.389526 668.624634,1156.761475   C691.618042,1138.086548 713.986084,1118.619141 736.216187,1099.031738   C775.464661,1064.448975 813.822754,1028.926758 849.890869,990.962402   C882.266724,956.884521 913.324341,921.700806 941.880554,884.362427   C980.857117,833.398987 1015.643921,779.914490 1039.734497,719.215332  z"/>
<path fill="#000000" opacity="1.000000" stroke="none" d="M 1053.75,724.49 L 1071.31,671.95 L 1082.02,629.58 L 1089.11,586.33 L 1091.79,548.36 L 1090.61,498.61 L 1086.31,454.68 L 1077.12,411.62 L 1061.64,363.83 L 1043.97,323.24 L 1022.80,285.06 L 998.03,249.17 L 969.65,215.64 L 937.93,184.75 L 903.47,157.06 L 866.95,133.02 L 822.61,109.69 L 781.66,92.92 L 739.60,80.30 L 696.65,71.88 L 646.55,67.29 L 602.70,67.85 L 558.70,72.75 L 515.67,81.76 L 468.16,96.87 L 427.57,114.41 L 383.86,138.59 L 347.57,163.62 L 313.78,191.94 L 283.01,223.22 L 251.72,262.24 L 227.77,299.27 L 207.70,338.26 L 189.46,385.09 L 176.28,433.86 L 171.69,458.48 L 167.78,489.35 L 165.76,539.82 L 169.57,589.95 L 179.60,645.20 L 194.75,699.27 L 215.57,751.64 L 241.46,801.23 L 274.85,853.51 L 315.34,907.89 L 366.91,968.87 L 413.20,1018.18 L 461.85,1065.05 L 576.53,1165.47 L 595.93,1178.34 L 615.77,1184.70 L 637.75,1185.43 L 653.62,1181.91 L 672.65,1172.44 L 707.41,1143.96 L 758.05,1099.73 L 834.04,1028.61 L 872.49,988.84 L 909.49,947.74 L 940.98,909.89 L 970.83,870.63 L 995.40,835.12 L 1018.07,798.21 L 1038.31,759.78 L 1053.75,724.49 Z"/>
<path fill="#FD8F95" opacity="1.000000" stroke="none" d=" M1039.576660,719.566284   C1015.643921,779.914490 980.857117,833.398987 941.880554,884.362427   C913.324341,921.700806 882.266724,956.884521 849.890869,990.962402   C813.822754,1028.926758 775.464661,1064.448975 736.216187,1099.031738   C713.986084,1118.619141 691.618042,1138.086548 668.624634,1156.761475   C644.457764,1176.389526 610.996704,1175.413574 587.353333,1154.994385   C550.687073,1123.328247 513.871643,1091.813843 477.903503,1059.365845   C434.827271,1020.505554 394.642029,978.745300 356.893616,934.644348   C327.078400,899.811523 299.002289,863.688171 273.933014,825.276794   C245.694733,782.009827 222.056213,736.484863 206.555634,687.006348   C195.846451,652.822144 187.984940,618.050659 183.750748,582.414856   C180.970230,559.013428 180.005615,535.575012 181.174210,512.133057   C183.118225,473.136230 189.701447,434.856323 201.252563,397.478546   C215.133102,352.563202 235.510590,310.839233 262.778076,272.562927   C286.382385,239.428741 313.917633,209.905472 345.562042,184.267731   C374.035187,161.199249 404.851044,141.835434 437.914490,126.077240   C480.758392,105.657600 525.654907,92.119164 572.758301,85.855598   C596.255249,82.731087 619.824890,81.412628 643.477600,82.193611   C698.270020,84.002792 751.006958,95.283295 801.558594,116.754578   C851.091064,137.793030 895.866577,166.098999 935.392761,202.692535   C990.308411,253.533783 1029.413208,314.615784 1053.439941,385.342590   C1064.815430,418.828247 1072.744385,453.199432 1074.976929,488.571533   C1076.369995,510.639862 1077.493530,532.854736 1076.563721,554.912231   C1074.827026,596.107117 1066.635132,636.355652 1054.509277,675.742920   C1050.007935,690.364136 1044.683472,704.731934 1039.576660,719.566284  M464.279480,332.791870   C440.061981,345.516937 416.733917,359.670715 395.171051,376.561707   C359.789032,404.277679 331.177063,437.539795 311.674561,478.360626   C289.944855,523.843201 281.074280,571.590881 284.842438,621.851013   C286.758972,647.414062 291.897125,672.193481 300.570984,696.279785   C311.299591,726.071899 326.654755,753.142090 348.164429,776.509094   C376.684631,807.491943 411.955872,827.991821 451.196777,842.166870   C503.123688,860.924500 557.200928,866.978882 611.922424,868.766418   C626.213379,869.233276 640.547241,868.418091 654.860779,868.155701   C682.349121,867.651794 709.601257,864.681274 736.664062,859.985229   C774.386658,853.439514 810.859680,843.044312 844.982056,825.151733   C889.929626,801.582764 924.076355,767.590332 946.221191,721.749756   C972.489380,667.373840 980.012146,610.192383 969.567383,551.061279   C956.034363,474.446777 915.333496,414.664642 852.768494,369.267395   C827.485474,350.921967 800.097839,336.090607 772.435974,321.753082   C751.371887,310.835236 731.346680,298.486816 713.635498,282.461395   C698.435486,268.708099 676.483765,268.317413 659.739014,280.430054   C658.670105,281.203278 655.996033,281.045227 654.856628,280.225311   C647.151550,274.681030 638.662903,272.008636 629.197754,271.794800   C618.209778,271.546570 608.720886,275.348022 600.217163,282.003326   C599.412598,281.506775 598.810669,281.223663 598.311890,280.814636   C581.520264,267.042480 556.974609,269.937744 542.084045,283.931458   C534.611877,290.953613 526.240540,297.287201 517.470276,302.603058   C500.253296,313.038727 482.472748,322.544708 464.279480,332.791870  z"/>
<path fill="#000000" opacity="1.000000" stroke="none" d="M 513.24,287.55 L 420.94,340.29 L 389.73,361.81 L 363.29,384.06 L 339.70,408.51 L 318.88,435.67 L 303.17,461.88 L 288.72,493.70 L 278.21,526.41 L 271.65,559.89 L 269.05,594.07 L 270.79,632.89 L 276.44,667.04 L 287.44,704.05 L 301.47,735.71 L 319.64,765.21 L 339.26,788.95 L 362.02,810.06 L 390.02,829.78 L 420.37,845.81 L 452.43,858.50 L 489.28,869.12 L 526.48,876.39 L 568.05,881.30 L 614.12,883.83 L 668.29,882.73 L 705.92,879.63 L 751.58,872.47 L 788.71,863.52 L 824.73,851.07 L 856.03,836.25 L 885.64,817.51 L 908.81,798.23 L 926.54,779.53 L 942.22,758.83 L 955.77,736.12 L 967.10,711.81 L 975.99,687.33 L 983.43,658.53 L 987.40,633.09 L 989.10,603.32 L 987.74,573.46 L 984.12,547.24 L 977.14,517.19 L 968.80,492.35 L 958.51,468.95 L 944.13,443.39 L 929.53,422.48 L 910.34,399.87 L 882.20,373.23 L 847.38,347.30 L 818.70,329.70 L 754.74,294.51 L 738.84,283.71 L 714.50,264.56 L 705.84,260.38 L 695.30,257.52 L 677.68,257.33 L 667.12,259.89 L 657.46,264.17 L 646.71,259.56 L 632.10,256.91 L 615.59,258.19 L 600.27,264.04 L 589.82,259.47 L 578.98,257.19 L 568.11,257.03 L 557.49,258.84 L 542.56,265.02 L 513.24,287.55 Z"/>
<path fill="#FEFBF1" opacity="1.000000" stroke="none" d=" M464.602448,332.613647   C482.472748,322.544708 500.253296,313.038727 517.470276,302.603058   C526.240540,297.287201 534.611877,290.953613 542.084045,283.931458   C556.974609,269.937744 581.520264,267.042480 598.311890,280.814636   C598.810669,281.223663 599.412598,281.506775 600.217163,282.003326   C608.720886,275.348022 618.209778,271.546570 629.197754,271.794800   C638.662903,272.008636 647.151550,274.681030 654.856628,280.225311   C655.996033,281.045227 658.670105,281.203278 659.739014,280.430054   C676.483765,268.317413 698.435486,268.708099 713.635498,282.461395   C731.346680,298.486816 751.371887,310.835236 772.435974,321.753082   C800.097839,336.090607 827.485474,350.921967 852.768494,369.267395   C915.333496,414.664642 956.034363,474.446777 969.567383,551.061279   C980.012146,610.192383 972.489380,667.373840 946.221191,721.749756   C924.076355,767.590332 889.929626,801.582764 844.982056,825.151733   C810.859680,843.044312 774.386658,853.439514 736.664062,859.985229   C709.601257,864.681274 682.349121,867.651794 654.860779,868.155701   C640.547241,868.418091 626.213379,869.233276 611.922424,868.766418   C557.200928,866.978882 503.123688,860.924500 451.196777,842.166870   C411.955872,827.991821 376.684631,807.491943 348.164429,776.509094   C326.654755,753.142090 311.299591,726.071899 300.570984,696.279785   C291.897125,672.193481 286.758972,647.414062 284.842438,621.851013   C281.074280,571.590881 289.944855,523.843201 311.674561,478.360626   C331.177063,437.539795 359.789032,404.277679 395.171051,376.561707   C416.733917,359.670715 440.061981,345.516937 464.602448,332.613647  M537.497803,359.967133   C551.336304,343.328339 565.174805,326.689514 579.013245,310.050720   C578.670837,309.708588 578.328430,309.366486 577.986023,309.024353   C576.755859,309.766418 575.476746,310.438782 574.303467,311.261932   C566.837097,316.500305 559.505920,321.939514 551.923096,327.002258   C525.550293,344.610321 499.091217,362.089020 472.668518,379.622314   C460.868164,387.452698 449.585999,395.905670 441.106812,407.466217   C435.252228,415.448395 430.289032,423.783844 430.938202,434.348846   C431.459412,442.831604 436.438110,447.902374 444.824402,448.031799   C454.207611,448.176544 461.781738,443.247406 467.743652,437.349731   C482.246918,423.002747 495.889313,407.767426 509.557526,392.600708   C518.981812,382.143158 527.869812,371.202271 537.497803,359.967133  M811.008057,400.532623   C800.004761,392.021790 789.378601,382.961029 777.924988,375.106873   C747.803040,354.451233 717.317871,334.325378 686.988892,313.971405   C684.608521,312.374023 682.316956,310.644348 679.984070,308.976166   C679.574890,309.376007 679.165649,309.775848 678.756409,310.175690   C681.678223,313.791718 684.539551,317.458649 687.532959,321.014343   C697.248291,332.554749 706.996094,344.067932 716.761108,355.566345   C729.529175,370.600952 742.284485,385.646820 755.126831,400.617920   C761.819580,408.420044 768.550476,416.197998 775.511475,423.759277   C783.738708,432.696136 792.110229,441.576447 803.708191,446.291260   C809.623230,448.695892 815.729858,449.590485 821.161926,445.252411   C827.024902,440.570160 827.816956,434.331696 826.305664,427.234497   C824.100586,416.878967 817.599670,409.113525 811.008057,400.532623  M610.509827,341.960571   C612.155212,332.696503 613.800598,323.432404 615.446045,314.168335   C615.026367,314.063904 614.606750,313.959473 614.187134,313.855011   C613.301025,315.214966 612.345154,316.534912 611.538818,317.940613   C591.380920,353.082245 570.939758,388.066559 551.248108,423.467804   C543.877930,436.717743 539.209595,451.189758 542.077209,466.837158   C543.533264,474.782562 547.259460,481.629028 555.722534,483.570068   C562.456238,485.114441 568.646790,481.702698 572.332642,476.582733   C577.310669,469.667664 582.165955,462.066650 584.565186,454.012634   C590.184326,435.149780 594.576172,415.902832 598.962708,396.696686   C603.050659,378.798004 606.489807,360.751160 610.509827,341.960571  M675.172302,460.199493   C677.446899,464.450439 679.396606,468.919556 682.070679,472.902344   C686.296204,479.196045 691.934692,484.463409 699.986389,483.623688   C708.064575,482.781158 712.847107,476.976135 714.745239,469.248901   C717.879578,456.489502 716.077881,443.976776 710.521912,432.369812   C704.435547,419.654694 697.430054,407.363617 690.495361,395.073792   C675.713379,368.876740 660.726440,342.795288 645.785706,316.688049   C645.062622,315.424591 643.977478,314.368286 643.060913,313.215515   C643.185791,320.298615 644.293091,326.773987 645.592712,333.210541   C650.377136,356.904480 654.777588,380.688477 660.192322,404.238617   C664.459290,422.796936 670.005371,441.061157 675.172302,460.199493  M848.439148,706.055054   C848.993835,705.689697 849.547974,705.323547 850.103210,704.959045   C867.691956,693.413391 867.540771,673.536865 849.206665,663.263550   C830.643250,652.861816 811.726318,652.988708 793.580566,664.735718   C779.046814,674.144470 776.516968,693.161621 793.414001,704.106812   C810.896912,715.431641 829.270630,715.419983 848.439148,706.055054  M394.945099,686.313354   C396.968933,690.729797 398.080322,695.959534 401.170135,699.425720   C416.839630,717.003967 453.430206,717.191040 469.396667,699.883179   C477.409546,691.197021 478.280670,679.302856 469.669373,669.889587   C453.938385,652.693542 423.501953,651.742126 405.289062,665.511475   C398.833435,670.392029 394.319153,676.672546 394.945099,686.313354  M479.342590,621.791443   C478.960236,633.508972 480.960541,644.738342 487.194366,654.800171   C496.663391,670.083740 514.122864,670.681030 523.714539,655.537781   C527.686707,649.266663 530.310791,641.663208 531.669556,634.318176   C534.223022,620.514343 532.147217,607.024475 524.025391,595.150208   C514.684448,581.493591 499.072113,581.022400 488.923584,593.954041   C482.753265,601.816589 480.420746,611.133240 479.342590,621.791443  M726.247742,611.702881   C725.770813,615.165588 725.036804,618.615356 724.862915,622.093262   C724.219971,634.946289 726.769470,647.075562 734.752319,657.423401   C744.418823,669.953613 759.841919,669.712769 768.744019,656.626343   C772.216736,651.521240 774.763855,645.407288 776.224609,639.387024   C779.974792,623.931396 778.570068,608.828979 769.520874,595.282898   C759.985779,581.009583 743.240662,580.865112 733.615417,595.081421   C730.415955,599.807068 728.785034,605.594727 726.247742,611.702881  M610.228455,701.193848   C636.183105,711.315002 662.199341,698.409973 674.121033,678.250366   C677.536743,672.474243 676.688477,667.299072 672.122681,664.756226   C667.644348,662.262146 663.498596,663.976868 659.950439,669.790710   C645.092163,694.136780 612.140320,693.988892 597.412842,669.510132   C594.041138,663.905823 589.668274,662.303284 585.133301,665.009949   C580.662537,667.678284 579.897522,672.449341 583.283691,678.039307   C589.582275,688.437378 598.118225,696.335571 610.228455,701.193848  z"/>
<path fill="#F1E1CD" opacity="1.000000" stroke="none" d=" M537.247620,360.222290   C527.869812,371.202271 518.981812,382.143158 509.557526,392.600708   C495.889313,407.767426 482.246918,423.002747 467.743652,437.349731   C461.781738,443.247406 454.207611,448.176544 444.824402,448.031799   C436.438110,447.902374 431.459412,442.831604 430.938202,434.348846   C430.289032,423.783844 435.252228,415.448395 441.106812,407.466217   C449.585999,395.905670 460.868164,387.452698 472.668518,379.622314   C499.091217,362.089020 525.550293,344.610321 551.923096,327.002258   C559.505920,321.939514 566.837097,316.500305 574.303467,311.261932   C575.476746,310.438782 576.755859,309.766418 577.986023,309.024353   C578.328430,309.366486 578.670837,309.708588 579.013245,310.050720   C565.174805,326.689514 551.336304,343.328339 537.247620,360.222290  z"/>
<path fill="#F1E1CD" opacity="1.000000" stroke="none" d=" M811.258545,400.787415   C817.599670,409.113525 824.100586,416.878967 826.305664,427.234497   C827.816956,434.331696 827.024902,440.570160 821.161926,445.252411   C815.729858,449.590485 809.623230,448.695892 803.708191,446.291260   C792.110229,441.576447 783.738708,432.696136 775.511475,423.759277   C768.550476,416.197998 761.819580,408.420044 755.126831,400.617920   C742.284485,385.646820 729.529175,370.600952 716.761108,355.566345   C706.996094,344.067932 697.248291,332.554749 687.532959,321.014343   C684.539551,317.458649 681.678223,313.791718 678.756409,310.175690   C679.165649,309.775848 679.574890,309.376007 679.984070,308.976166   C682.316956,310.644348 684.608521,312.374023 686.988892,313.971405   C717.317871,334.325378 747.803040,354.451233 777.924988,375.106873   C789.378601,382.961029 800.004761,392.021790 811.258545,400.787415  z"/>
<path fill="#F1E1CD" opacity="1.000000" stroke="none" d=" M610.362183,342.365051   C606.489807,360.751160 603.050659,378.798004 598.962708,396.696686   C594.576172,415.902832 590.184326,435.149780 584.565186,454.012634   C582.165955,462.066650 577.310669,469.667664 572.332642,476.582733   C568.646790,481.702698 562.456238,485.114441 555.722534,483.570068   C547.259460,481.629028 543.533264,474.782562 542.077209,466.837158   C539.209595,451.189758 543.877930,436.717743 551.248108,423.467804   C570.939758,388.066559 591.380920,353.082245 611.538818,317.940613   C612.345154,316.534912 613.301025,315.214966 614.187134,313.855011   C614.606750,313.959473 615.026367,314.063904 615.446045,314.168335   C613.800598,323.432404 612.155212,332.696503 610.362183,342.365051  z"/>
<path fill="#F1E1CD" opacity="1.000000" stroke="none" d=" M675.077759,459.827759   C670.005371,441.061157 664.459290,422.796936 660.192322,404.238617   C654.777588,380.688477 650.377136,356.904480 645.592712,333.210541   C644.293091,326.773987 643.185791,320.298615 643.060913,313.215515   C643.977478,314.368286 645.062622,315.424591 645.785706,316.688049   C660.726440,342.795288 675.713379,368.876740 690.495361,395.073792   C697.430054,407.363617 704.435547,419.654694 710.521912,432.369812   C716.077881,443.976776 717.879578,456.489502 714.745239,469.248901   C712.847107,476.976135 708.064575,482.781158 699.986389,483.623688   C691.934692,484.463409 686.296204,479.196045 682.070679,472.902344   C679.396606,468.919556 677.446899,464.450439 675.077759,459.827759  z"/>
<path fill="#FDC5BB" opacity="1.000000" stroke="none" d=" M848.139771,706.273499   C829.270630,715.419983 810.896912,715.431641 793.414001,704.106812   C776.516968,693.161621 779.046814,674.144470 793.580566,664.735718   C811.726318,652.988708 830.643250,652.861816 849.206665,663.263550   C867.540771,673.536865 867.691956,693.413391 850.103210,704.959045   C849.547974,705.323547 848.993835,705.689697 848.139771,706.273499  z"/>
<path fill="#FDC5BB" opacity="1.000000" stroke="none" d=" M394.943726,685.867859   C394.319153,676.672546 398.833435,670.392029 405.289062,665.511475   C423.501953,651.742126 453.938385,652.693542 469.669373,669.889587   C478.280670,679.302856 477.409546,691.197021 469.396667,699.883179   C453.430206,717.191040 416.839630,717.003967 401.170135,699.425720   C398.080322,695.959534 396.968933,690.729797 394.943726,685.867859  z"/>
<path fill="#2E2928" opacity="1.000000" stroke="none" d=" M479.414551,621.339111   C480.420746,611.133240 482.753265,601.816589 488.923584,593.954041   C499.072113,581.022400 514.684448,581.493591 524.025391,595.150208   C532.147217,607.024475 534.223022,620.514343 531.669556,634.318176   C530.310791,641.663208 527.686707,649.266663 523.714539,655.537781   C514.122864,670.681030 496.663391,670.083740 487.194366,654.800171   C480.960541,644.738342 478.960236,633.508972 479.414551,621.339111  M498.671783,596.697021   C491.486389,598.893372 487.652130,605.411194 489.376526,612.497925   C490.658264,617.765442 495.542297,620.859253 500.215790,619.364075   C505.164398,617.780762 508.687927,612.175659 508.388153,606.363831   C508.114319,601.055908 505.344604,598.035767 498.671783,596.697021  z"/>
<path fill="#2F2929" opacity="1.000000" stroke="none" d=" M726.342407,611.299866   C728.785034,605.594727 730.415955,599.807068 733.615417,595.081421   C743.240662,580.865112 759.985779,581.009583 769.520874,595.282898   C778.570068,608.828979 779.974792,623.931396 776.224609,639.387024   C774.763855,645.407288 772.216736,651.521240 768.744019,656.626343   C759.841919,669.712769 744.418823,669.953613 734.752319,657.423401   C726.769470,647.075562 724.219971,634.946289 724.862915,622.093262   C725.036804,618.615356 725.770813,615.165588 726.342407,611.299866  M737.763672,617.834229   C743.474976,621.286316 748.310486,619.982727 751.854736,614.035645   C755.424805,608.044983 754.334717,600.058105 748.919434,597.917725   C746.342407,596.899109 742.185852,597.342834 739.815918,598.830566   C733.786255,602.615540 732.981384,610.894836 737.763672,617.834229  z"/>
<path fill="#2E2A29" opacity="1.000000" stroke="none" d=" M609.860718,701.075684   C598.118225,696.335571 589.582275,688.437378 583.283691,678.039307   C579.897522,672.449341 580.662537,667.678284 585.133301,665.009949   C589.668274,662.303284 594.041138,663.905823 597.412842,669.510132   C612.140320,693.988892 645.092163,694.136780 659.950439,669.790710   C663.498596,663.976868 667.644348,662.262146 672.122681,664.756226   C676.688477,667.299072 677.536743,672.474243 674.121033,678.250366   C662.199341,698.409973 636.183105,711.315002 609.860718,701.075684  z"/>
<path fill="#F5F5F5" opacity="1.000000" stroke="none" d=" M499.077820,596.675659   C505.344604,598.035767 508.114319,601.055908 508.388153,606.363831   C508.687927,612.175659 505.164398,617.780762 500.215790,619.364075   C495.542297,620.859253 490.658264,617.765442 489.376526,612.497925   C487.652130,605.411194 491.486389,598.893372 499.077820,596.675659  z"/>
<path fill="#F4F4F4" opacity="1.000000" stroke="none" d=" M737.492554,617.569214   C732.981384,610.894836 733.786255,602.615540 739.815918,598.830566   C742.185852,597.342834 746.342407,596.899109 748.919434,597.917725   C754.334717,600.058105 755.424805,608.044983 751.854736,614.035645   C748.310486,619.982727 743.474976,621.286316 737.763672,617.834229  z"/>
</svg>